<svg xmlns="http://www.w3.org/2000/svg" viewBox="0 0 512 512" width="512" height="512">
  <defs>
    <!-- Modern gradient: Blue to Purple (trending in 2025) -->
    <linearGradient id="modernBg" x1="0%" y1="0%" x2="100%" y2="100%">
      <stop offset="0%" style="stop-color:#3b82f6;stop-opacity:1" />
      <stop offset="50%" style="stop-color:#6366f1;stop-opacity:1" />
      <stop offset="100%" style="stop-color:#8b5cf6;stop-opacity:1" />
    </linearGradient>

    <!-- Power button gradient -->
    <linearGradient id="powerGradient" x1="0%" y1="0%" x2="0%" y2="100%">
      <stop offset="0%" style="stop-color:#ffffff;stop-opacity:1" />
      <stop offset="100%" style="stop-color:#e0e7ff;stop-opacity:1" />
    </linearGradient>

    <!-- Glow effect -->
    <radialGradient id="glow" cx="50%" cy="50%" r="50%">
      <stop offset="0%" style="stop-color:#ffffff;stop-opacity:0.3" />
      <stop offset="100%" style="stop-color:#ffffff;stop-opacity:0" />
    </radialGradient>

    <!-- Shadow filter -->
    <filter id="shadow" x="-50%" y="-50%" width="200%" height="200%">
      <feGaussianBlur in="SourceAlpha" stdDeviation="8"/>
      <feOffset dx="0" dy="4" result="offsetblur"/>
      <feComponentTransfer>
        <feFuncA type="linear" slope="0.3"/>
      </feComponentTransfer>
      <feMerge>
        <feMergeNode/>
        <feMergeNode in="SourceGraphic"/>
      </feMerge>
    </filter>
  </defs>

  <!-- Background with iOS rounded corners -->
  <rect width="512" height="512" rx="115" fill="url(#modernBg)"/>

  <!-- Subtle glow overlay -->
  <circle cx="256" cy="200" r="180" fill="url(#glow)" opacity="0.4"/>

  <!-- Network waves (radiating outward) -->
  <g opacity="0.25" stroke="#ffffff" stroke-width="8" fill="none" stroke-linecap="round">
    <path d="M 150 256 Q 150 180, 180 150" />
    <path d="M 362 256 Q 362 180, 332 150" />
    <path d="M 120 270 Q 110 160, 160 110" />
    <path d="M 392 270 Q 402 160, 352 110" />
  </g>

  <!-- Network waves (stronger) -->
  <g opacity="0.4" stroke="#ffffff" stroke-width="10" fill="none" stroke-linecap="round">
    <path d="M 170 256 Q 170 200, 200 170" />
    <path d="M 342 256 Q 342 200, 312 170" />
  </g>

  <!-- Power button circle (outer ring) -->
  <g filter="url(#shadow)">
    <circle cx="256" cy="256" r="100" fill="none" stroke="url(#powerGradient)" stroke-width="16" opacity="0.95"/>

    <!-- Power button inner glow -->
    <circle cx="256" cy="256" r="85" fill="url(#glow)" opacity="0.3"/>

    <!-- Power symbol (vertical line) -->
    <line x1="256" y1="180" x2="256" y2="256"
          stroke="url(#powerGradient)" stroke-width="20"
          stroke-linecap="round" opacity="0.95"/>
  </g>

  <!-- Accent glow at bottom (modern touch) -->
  <ellipse cx="256" cy="450" rx="120" ry="20" fill="#ffffff" opacity="0.1"/>
</svg>
